<svg width="119" height="125" viewBox="0 0 119 125" fill="none" xmlns="http://www.w3.org/2000/svg">
<path d="M104.129 45.9534C106.241 45.9534 107.953 44.2395 107.953 42.1254C107.953 40.0112 106.241 38.2974 104.129 38.2974C102.017 38.2974 100.304 40.0112 100.304 42.1254C100.304 44.2395 102.017 45.9534 104.129 45.9534Z" fill="#3B414E"/>
<path d="M2.53522 66.6545C3.92486 66.6545 5.05139 65.527 5.05139 64.1361C5.05139 62.7452 3.92486 61.6177 2.53522 61.6177C1.14557 61.6177 0.019043 62.7452 0.019043 64.1361C0.019043 65.527 1.14557 66.6545 2.53522 66.6545Z" fill="#3B414E"/>
<path d="M14.1016 111.931C15.4913 111.931 16.6178 110.804 16.6178 109.413C16.6178 108.022 15.4913 106.894 14.1016 106.894C12.712 106.894 11.5854 108.022 11.5854 109.413C11.5854 110.804 12.712 111.931 14.1016 111.931Z" fill="#3B414E"/>
<path d="M27.5513 111.931L62.8603 100.867V55.5056L27.5513 66.4843V111.931Z" fill="#1F2229" stroke="#2E333D" stroke-width="2" stroke-miterlimit="10"/>
<path d="M98.1693 111.931L62.8604 100.867V55.5056L98.1693 66.4843V111.931Z" fill="#1F2229" stroke="#2E333D" stroke-width="2" stroke-miterlimit="10"/>
<path d="M62.8603 123.08L27.5513 112.016V66.6545L62.8603 77.7184V123.08Z" fill="#2E333D" stroke="#3E4450" stroke-width="2" stroke-miterlimit="10" stroke-linejoin="round"/>
<path d="M62.8604 123.08L98.1693 112.016V66.6545L62.8604 77.7184V123.08Z" fill="#2E333D" stroke="#3E4450" stroke-width="2" stroke-miterlimit="10" stroke-linejoin="round"/>
<path d="M62.8604 55.5056L46.2592 43.0801L10.3604 55.1652L27.5514 66.4843L62.8604 55.5056Z" fill="#2E333D" stroke="#3E4450" stroke-width="2" stroke-miterlimit="10"/>
<path d="M62.8604 55.5056L79.4615 43.0801L115.36 55.1652L98.1693 66.4843L62.8604 55.5056Z" fill="#2E333D" stroke="#3E4450" stroke-width="2" stroke-miterlimit="10"/>
<path d="M27.5514 66.6545L62.8604 77.7184L45.248 88.9524L10.3604 77.3779L27.5514 66.6545Z" fill="#2E333D" stroke="#3E4450" stroke-width="2" stroke-miterlimit="10"/>
<path d="M98.1693 66.6545L62.8604 77.7184L80.4727 88.9524L115.36 77.3779L98.1693 66.6545Z" fill="#2E333D" stroke="#3E4450" stroke-width="2" stroke-miterlimit="10"/>
<path d="M72.7118 11.9569C77.6584 25.3813 79.1328 28.3641 79.6167 41.592C79.4307 44.6115 79.3153 47.8949 77.8917 50.5388C75.9906 54.5832 71.3405 57.3842 66.9472 57.4296C62.4213 57.5104 57.9842 54.7393 55.987 50.4662C54.5819 47.8729 54.6266 44.3256 56.554 41.9711C58.6493 39.7129 62.3356 39.1499 64.9872 40.5609C67.9041 41.9008 69.6451 44.687 70.29 47.6253C70.9349 50.5637 70.6516 53.7506 69.8644 56.6482C68.2181 63.6957 66.8546 64.0367 62.8173 75.9684" stroke="#3E4450" stroke-width="2" stroke-miterlimit="10" stroke-dasharray="4 4"/>
<path d="M78.7323 4.85141C78.7208 6.82539 76.8838 8.03408 74.5543 7.40379C72.1015 6.98568 70.3656 6.55475 70.2538 4.79296C70.3101 2.98616 72.2814 2.27901 74.5887 1.48186C77.3553 0.382543 78.5757 2.92243 78.7323 4.85141Z" fill="#949BAB"/>
<path d="M62.883 10.8878C64.126 12.1674 66.7468 12.5405 68.0239 10.5859C69.4242 8.41916 70.6228 6.84391 69.335 5.3971C68.092 4.11747 66.8823 4.97899 64.1157 6.07831C61.8979 7.20981 61.4272 9.48596 62.883 10.8878Z" fill="#949BAB"/>
<path d="M68.6186 2.72245C69.7499 2.24029 71.1051 2.59402 71.7098 3.50711C71.9673 3.79647 72.2696 4.25302 72.3592 4.58738C73.3221 6.8379 73.0194 9.06906 71.7201 9.59622C70.2976 10.3356 68.3377 9.06873 67.5876 6.94038C67.4085 6.27166 67.319 5.9373 67.1846 5.43576C67.0392 4.2205 67.4874 3.20461 68.6186 2.72245C68.7867 2.67745 68.6186 2.72245 68.6186 2.72245Z" fill="#3B414E"/>
<path d="M16.6176 38.9503H14.4276V36.7603H12.5504V38.9503H10.3604V40.89H12.5504V43.0801H14.4276V40.89H16.6176V38.9503Z" fill="#3B414E"/>
<path d="M21.4282 93.8976H19.2381V91.7075H17.3609V93.8976H15.1709V95.8373H17.3609V98.0274H19.2381V95.8373H21.4282V93.8976Z" fill="#3B414E"/>
<path d="M117.166 94.0214L114.487 92.6686L115.84 89.989L113.543 88.8294L112.19 91.509L109.51 90.1561L108.312 92.5294L110.992 93.8823L109.639 96.5618L111.936 97.7214L113.288 95.0419L115.968 96.3948L117.166 94.0214Z" fill="#3B414E"/>
</svg>
