<svg width="142" height="115" viewBox="0 0 142 115" fill="none" xmlns="http://www.w3.org/2000/svg">
<path d="M70.888 113.062C98.888 113.062 121.588 90.3617 121.588 62.2617C121.588 34.1617 98.788 11.4617 70.888 11.4617C42.888 11.4617 20.188 34.1617 20.188 62.2617C20.188 90.3617 42.888 113.062 70.888 113.062Z" fill="#1F2229" stroke="#2E333D" stroke-width="2" stroke-miterlimit="10"/>
<path d="M118.288 28.9617C120.552 28.9617 122.388 27.1261 122.388 24.8617C122.388 22.5974 120.552 20.7617 118.288 20.7617C116.024 20.7617 114.188 22.5974 114.188 24.8617C114.188 27.1261 116.024 28.9617 118.288 28.9617Z" fill="#3B414E"/>
<path d="M124.288 12.9617C125.834 12.9617 127.088 11.7081 127.088 10.1617C127.088 8.6153 125.834 7.36169 124.288 7.36169C122.741 7.36169 121.488 8.6153 121.488 10.1617C121.488 11.7081 122.741 12.9617 124.288 12.9617Z" fill="#3B414E"/>
<path d="M22.8879 28.8617C24.4343 28.8617 25.6879 27.6081 25.6879 26.0617C25.6879 24.5153 24.4343 23.2617 22.8879 23.2617C21.3415 23.2617 20.0879 24.5153 20.0879 26.0617C20.0879 27.6081 21.3415 28.8617 22.8879 28.8617Z" fill="#3B414E"/>
<path d="M5.78789 82.8617C8.65977 82.8617 10.9879 80.5336 10.9879 77.6617C10.9879 74.7898 8.65977 72.4617 5.78789 72.4617C2.91601 72.4617 0.587891 74.7898 0.587891 77.6617C0.587891 80.5336 2.91601 82.8617 5.78789 82.8617Z" fill="#3B414E"/>
<path d="M66.6394 73.3704L32.7001 96.9559C30.7369 98.3071 28.062 97.8403 26.6878 95.8749L4.15974 63.3711C2.81003 61.4056 3.27629 58.7277 5.23952 57.3519L39.1788 33.7663C41.142 32.4151 43.8169 32.8819 45.1912 34.8473L67.7437 67.3511C69.0934 69.3166 68.6026 72.0191 66.6394 73.3704Z" fill="#2E333D" stroke="#3E4450" stroke-width="2" stroke-miterlimit="10"/>
<path d="M61.3877 69.8078L31.5467 90.5434C30.7123 91.133 29.5589 90.9119 28.9699 90.0766L10.3438 63.1989C9.75486 62.3636 9.97573 61.2089 10.8101 60.6192L40.6511 39.8836C41.4855 39.294 42.6389 39.5151 43.2279 40.3504L61.854 67.2281C62.4429 68.0634 62.2221 69.2181 61.3877 69.8078Z" fill="#1F2229"/>
<path d="M40.0133 69.5867L29.1174 77.1538L30.2708 67.2036L40.0133 69.5867Z" fill="#3B414E"/>
<path d="M49.0194 63.322L33.3381 74.2303L35.0069 59.907L49.0194 63.322Z" fill="#2E333D"/>
<path d="M25.9516 66.3192C27.334 66.3192 28.4547 65.1972 28.4547 63.8132C28.4547 62.4292 27.334 61.3073 25.9516 61.3073C24.5692 61.3073 23.4485 62.4292 23.4485 63.8132C23.4485 65.1972 24.5692 66.3192 25.9516 66.3192Z" fill="#3B414E"/>
<path d="M107.744 93.4424L76.21 66.7122C74.394 65.1644 74.1731 62.4373 75.6946 60.6192L101.241 30.4248C102.787 28.6068 105.511 28.3857 107.327 29.9089L138.861 56.6392C140.677 58.187 140.898 60.9141 139.377 62.7321L113.83 92.9265C112.284 94.7445 109.56 94.9657 107.744 93.4424Z" fill="#2E333D" stroke="#3E4450" stroke-width="2" stroke-miterlimit="10"/>
<path d="M109.83 87.4477L82.0994 63.9604C81.3141 63.2971 81.216 62.1424 81.8786 61.3562L102.983 36.3948C103.646 35.6087 104.799 35.5104 105.584 36.1737L133.315 59.661C134.1 60.3243 134.199 61.479 133.536 62.2652L112.431 87.2266C111.769 88.0127 110.615 88.111 109.83 87.4477Z" fill="#1F2229"/>
<path d="M104.505 66.6875L94.394 58.1132L104.308 56.6637L104.505 66.6875Z" fill="#3B414E"/>
<path d="M112.898 73.7879L98.3208 61.4301L112.579 59.3663L112.898 73.7879Z" fill="#2E333D"/>
<path d="M106.468 54.1334C107.85 54.1334 108.971 53.0114 108.971 51.6274C108.971 50.2434 107.85 49.1215 106.468 49.1215C105.086 49.1215 103.965 50.2434 103.965 51.6274C103.965 53.0114 105.086 54.1334 106.468 54.1334Z" fill="#3B414E"/>
<path d="M93.4659 66.046L52.8729 73.8646C50.5287 74.3096 48.2653 72.7725 47.8022 70.4474L40.2857 31.6167C39.838 29.2725 41.373 27.0114 43.6981 26.551L84.2911 18.7324C86.6353 18.2874 88.8987 19.8245 89.3618 22.1496L96.8783 60.9803C97.326 63.3245 95.791 65.5856 93.4659 66.046Z" fill="#2E333D" stroke="#3E4450" stroke-width="2" stroke-miterlimit="10"/>
<path d="M90.1021 60.6634L54.4202 67.5506C53.4111 67.7468 52.4498 67.0996 52.2525 66.0905L46.0297 34.0008C45.8324 32.9917 46.4787 32.0314 47.4878 31.8352L83.1697 24.9479C84.1788 24.7518 85.1401 25.399 85.3374 26.4081L91.5602 58.4978C91.7575 59.5069 91.1112 60.4672 90.1021 60.6634Z" fill="#1F2229"/>
<path d="M70.5878 51.8011L57.5697 54.3055L62.654 45.6716L70.5878 51.8011Z" fill="#3B414E"/>
<path d="M81.3808 49.7115L62.6152 53.3247L69.9433 40.9213L81.3808 49.7115Z" fill="#2E333D"/>
<path d="M62.036 42.4031C62.9024 41.3259 62.7306 39.7494 61.6521 38.882C60.5737 38.0145 58.9971 38.1846 58.1306 39.2618C57.2642 40.339 57.436 41.9155 58.5145 42.7829C59.5929 43.6503 61.1695 43.4803 62.036 42.4031Z" fill="#3B414E"/>
<path d="M94.017 90.4313C93.54 92.4587 92.8244 94.6054 91.9896 96.3943C89.7237 100.807 86.1459 104.265 81.7333 106.531C77.2014 108.797 71.8348 109.751 66.4681 108.559C53.8266 105.935 45.7169 93.5321 48.3406 80.8906C50.9643 68.2491 63.2481 60.0202 75.8896 62.7631C80.4214 63.7172 84.357 65.9831 87.6963 69.0839C93.3015 74.6891 95.6867 82.7987 94.017 90.4313Z" fill="#6D7381" stroke="#949BAB" stroke-width="2" stroke-miterlimit="10" stroke-linejoin="round"/>
<path d="M78.6325 83.6335H74.2658C73.7135 83.6335 73.2658 83.1858 73.2658 82.6335V78.2668C73.2658 77.1935 72.431 76.2394 71.2384 76.2394C70.1651 76.2394 69.211 77.0742 69.211 78.2668V82.6335C69.211 83.1858 68.7633 83.6335 68.211 83.6335H63.8443C62.771 83.6335 61.8169 84.4683 61.8169 85.6609C61.8169 86.8535 62.6517 87.6883 63.8443 87.6883H68.211C68.7633 87.6883 69.211 88.136 69.211 88.6883V93.055C69.211 94.1283 70.0458 95.0824 71.2384 95.0824C72.3117 95.0824 73.2658 94.2476 73.2658 93.055V88.6883C73.2658 88.136 73.7135 87.6883 74.2658 87.6883H78.6325C79.7058 87.6883 80.6599 86.8535 80.6599 85.6609C80.6599 84.4683 79.7058 83.6335 78.6325 83.6335Z" fill="#C7CDDB"/>
</svg>
