<svg width="142" height="115" viewBox="0 0 142 115" fill="none" xmlns="http://www.w3.org/2000/svg">
<path d="M70.6065 113.062C98.6065 113.062 121.306 90.3619 121.306 62.2619C121.306 34.1619 98.5065 11.4619 70.6065 11.4619C42.6065 11.4619 19.9065 34.1619 19.9065 62.2619C19.9065 90.3619 42.6065 113.062 70.6065 113.062Z" fill="#F1F3F9" stroke="#D6DCE8" stroke-width="2" stroke-miterlimit="10"/>
<path d="M118.006 28.9617C120.271 28.9617 122.106 27.1261 122.106 24.8617C122.106 22.5974 120.271 20.7617 118.006 20.7617C115.742 20.7617 113.906 22.5974 113.906 24.8617C113.906 27.1261 115.742 28.9617 118.006 28.9617Z" fill="#F1F3F9"/>
<path d="M124.007 12.9618C125.553 12.9618 126.807 11.7082 126.807 10.1618C126.807 8.61542 125.553 7.36182 124.007 7.36182C122.46 7.36182 121.207 8.61542 121.207 10.1618C121.207 11.7082 122.46 12.9618 124.007 12.9618Z" fill="#F1F3F9"/>
<path d="M22.6065 28.8617C24.1529 28.8617 25.4065 27.6081 25.4065 26.0617C25.4065 24.5153 24.1529 23.2617 22.6065 23.2617C21.0601 23.2617 19.8065 24.5153 19.8065 26.0617C19.8065 27.6081 21.0601 28.8617 22.6065 28.8617Z" fill="#F1F3F9"/>
<path d="M5.50652 82.8618C8.3784 82.8618 10.7065 80.5337 10.7065 77.6618C10.7065 74.7899 8.3784 72.4618 5.50652 72.4618C2.63464 72.4618 0.306519 74.7899 0.306519 77.6618C0.306519 80.5337 2.63464 82.8618 5.50652 82.8618Z" fill="#F1F3F9"/>
<path d="M66.3579 73.3704L32.4186 96.9559C30.4554 98.3071 27.7805 97.8403 26.4063 95.8749L3.87825 63.3711C2.52853 61.4056 2.9948 58.7277 4.95802 57.3519L38.8973 33.7663C40.8605 32.4151 43.5354 32.8819 44.9097 34.8473L67.4622 67.3511C68.8119 69.3166 68.3211 72.0191 66.3579 73.3704Z" fill="white" stroke="#D6DCE8" stroke-width="2" stroke-miterlimit="10"/>
<path d="M61.1063 69.8079L31.2653 90.5435C30.4309 91.1331 29.2775 90.912 28.6886 90.0767L10.0625 63.199C9.47351 62.3637 9.69437 61.209 10.5287 60.6194L40.3698 39.8838C41.2041 39.2941 42.3575 39.5152 42.9465 40.3506L61.5726 67.2282C62.1616 68.0635 61.9407 69.2183 61.1063 69.8079Z" fill="#F1F3F9"/>
<path d="M39.7318 69.5867L28.8359 77.1538L29.9893 67.2036L39.7318 69.5867Z" fill="#AAB2C5"/>
<path d="M48.7379 63.322L33.0566 74.2303L34.7253 59.907L48.7379 63.322Z" fill="#D6DCE8"/>
<path d="M25.6701 66.3192C27.0525 66.3192 28.1732 65.1972 28.1732 63.8132C28.1732 62.4292 27.0525 61.3073 25.6701 61.3073C24.2877 61.3073 23.167 62.4292 23.167 63.8132C23.167 65.1972 24.2877 66.3192 25.6701 66.3192Z" fill="#AAB2C5"/>
<path d="M107.463 93.4424L75.9285 66.7122C74.1125 65.1644 73.8916 62.4373 75.4131 60.6192L100.96 30.4248C102.506 28.6068 105.23 28.3857 107.046 29.9089L138.58 56.6392C140.396 58.187 140.617 60.9141 139.095 62.7321L113.549 92.9265C112.003 94.7445 109.279 94.9657 107.463 93.4424Z" fill="white" stroke="#D6DCE8" stroke-width="2" stroke-miterlimit="10"/>
<path d="M109.549 87.4477L81.8181 63.9604C81.0328 63.2971 80.9346 62.1424 81.5972 61.3562L102.702 36.3948C103.364 35.6087 104.518 35.5104 105.303 36.1737L133.034 59.661C133.819 60.3243 133.917 61.479 133.255 62.2652L112.15 87.2266C111.487 88.0127 110.334 88.111 109.549 87.4477Z" fill="#F1F3F9"/>
<path d="M104.223 66.6875L94.1127 58.1132L104.027 56.6637L104.223 66.6875Z" fill="#AAB2C5"/>
<path d="M112.616 73.7879L98.0393 61.4301L112.297 59.3663L112.616 73.7879Z" fill="#D6DCE8"/>
<path d="M106.187 54.1335C107.569 54.1335 108.69 53.0115 108.69 51.6275C108.69 50.2435 107.569 49.1216 106.187 49.1216C104.804 49.1216 103.684 50.2435 103.684 51.6275C103.684 53.0115 104.804 54.1335 106.187 54.1335Z" fill="#AAB2C5"/>
<path d="M93.1846 66.0458L52.5916 73.8645C50.2474 74.3095 47.9839 72.7723 47.5209 70.4473L40.0044 31.6166C39.5567 29.2724 41.0917 27.0113 43.4168 26.5509L84.0097 18.7322C86.354 18.2873 88.6174 19.8244 89.0804 22.1495L96.597 60.9802C97.0446 63.3244 95.5097 65.5855 93.1846 66.0458Z" fill="white" stroke="#D6DCE8" stroke-width="2" stroke-miterlimit="10"/>
<path d="M89.8206 60.6635L54.1387 67.5508C53.1296 67.7469 52.1683 67.0997 51.971 66.0907L45.7482 34.0009C45.5509 32.9918 46.1972 32.0315 47.2063 31.8354L82.8882 24.9481C83.8973 24.7519 84.8586 25.3991 85.0559 26.4082L91.2787 58.4979C91.476 59.507 90.8297 60.4673 89.8206 60.6635Z" fill="#F1F3F9"/>
<path d="M70.3064 51.8011L57.2882 54.3055L62.3726 45.6716L70.3064 51.8011Z" fill="#AAB2C5"/>
<path d="M81.0993 49.7115L62.3337 53.3247L69.6619 40.9213L81.0993 49.7115Z" fill="#D6DCE8"/>
<path d="M61.7545 42.4029C62.6209 41.3257 62.4491 39.7493 61.3706 38.8819C60.2922 38.0144 58.7155 38.1845 57.8491 39.2617C56.9826 40.3389 57.1545 41.9154 58.2329 42.7828C59.3114 43.6502 60.888 43.4802 61.7545 42.4029Z" fill="#AAB2C5"/>
<path d="M93.7356 90.4313C93.2586 92.4587 92.543 94.6054 91.7082 96.3943C89.4423 100.807 85.8645 104.265 81.4519 106.531C76.92 108.797 71.5533 109.751 66.1866 108.559C53.5451 105.935 45.4355 93.5321 48.0592 80.8906C50.6829 68.2491 62.9666 60.0202 75.6081 62.7631C80.14 63.7172 84.0756 65.9831 87.4148 69.0839C93.02 74.6891 95.4052 82.7987 93.7356 90.4313Z" fill="#D6DCE8" stroke="#AAB2C5" stroke-width="2" stroke-miterlimit="10"/>
<path d="M78.3511 82.6335H73.9844V78.2668C73.9844 76.68 72.7399 75.2394 70.957 75.2394C69.3702 75.2394 67.9296 76.4838 67.9296 78.2668V82.6335H63.5629C61.9761 82.6335 60.5355 83.8779 60.5355 85.6609C60.5355 86.4967 60.8321 87.2662 61.3948 87.8289C61.9576 88.3916 62.727 88.6883 63.5629 88.6883H67.9296V93.055C67.9296 94.6417 69.174 96.0824 70.957 96.0824C72.5437 96.0824 73.9844 94.8379 73.9844 93.055V88.6883H78.3511C79.9378 88.6883 81.3785 87.4439 81.3785 85.6609C81.3785 83.8779 79.9378 82.6335 78.3511 82.6335Z" fill="white" stroke="#AAB2C5" stroke-width="2"/>
</svg>
