<svg width="177" height="177" viewBox="0 0 177 177" fill="none" xmlns="http://www.w3.org/2000/svg">
<path d="M88.3782 138.952C116.378 138.952 139.078 116.252 139.078 88.1519C139.078 60.0519 116.278 37.3519 88.3782 37.3519C60.3782 37.3519 37.6782 60.0519 37.6782 88.1519C37.6782 116.252 60.3782 138.952 88.3782 138.952Z" fill="#1F2229" stroke="#2E333D" stroke-width="2" stroke-miterlimit="10"/>
<path d="M135.778 54.852C138.043 54.852 139.878 53.0163 139.878 50.752C139.878 48.4876 138.043 46.652 135.778 46.652C133.514 46.652 131.678 48.4876 131.678 50.752C131.678 53.0163 133.514 54.852 135.778 54.852Z" fill="#3B414E"/>
<path d="M141.778 38.852C143.324 38.852 144.578 37.5984 144.578 36.052C144.578 34.5056 143.324 33.252 141.778 33.252C140.232 33.252 138.978 34.5056 138.978 36.052C138.978 37.5984 140.232 38.852 141.778 38.852Z" fill="#3B414E"/>
<path d="M40.3781 54.752C41.9245 54.752 43.1781 53.4984 43.1781 51.952C43.1781 50.4056 41.9245 49.152 40.3781 49.152C38.8317 49.152 37.5781 50.4056 37.5781 51.952C37.5781 53.4984 38.8317 54.752 40.3781 54.752Z" fill="#3B414E"/>
<path d="M122.611 127.793L54.9746 128.279C51.0706 128.296 47.8871 125.149 47.8349 121.27L47.3107 56.5594C47.2889 52.6547 50.432 49.4743 54.3098 49.4263L121.946 48.9411C125.85 48.9236 129.033 52.0709 129.086 55.9494L129.61 120.66C129.632 124.565 126.489 127.746 122.611 127.793Z" fill="#2E333D" stroke="#3E4450" stroke-width="2" stroke-miterlimit="10"/>
<path d="M118.802 118.132L59.3447 118.582C57.6628 118.597 56.3091 117.269 56.2923 115.587L55.8412 62.1065C55.8244 60.4243 57.1503 59.0718 58.8321 59.0569L118.29 58.6069C119.972 58.592 121.325 59.9196 121.342 61.6018L121.793 115.082C121.81 116.764 120.484 118.117 118.802 118.132Z" fill="#1F2229"/>
<path d="M90.0477 98.0604L68.3578 98.2111L79.1098 85.8355L90.0477 98.0604Z" fill="#3B414E"/>
<path d="M108.034 97.9138L76.7672 98.1362L92.2521 80.3645L108.034 97.9138Z" fill="#2E333D"/>
<path d="M79.089 80.3926C80.8039 78.9177 80.997 76.3303 79.5205 74.6134C78.0439 72.8966 75.4567 72.7005 73.7418 74.1754C72.0269 75.6503 71.8337 78.2377 73.3103 79.9545C74.7869 81.6714 77.3741 81.8675 79.089 80.3926Z" fill="#3B414E"/>
<path d="M103.519 125.448C103.209 126.766 102.744 128.161 102.201 129.324C100.728 132.192 98.4029 134.44 95.5346 135.913C92.5889 137.386 89.1004 138.006 85.612 137.231C77.3949 135.526 72.1235 127.464 73.829 119.247C75.5344 111.029 83.519 105.681 91.7361 107.463C94.6819 108.084 97.2401 109.557 99.4106 111.572C103.054 115.216 104.604 120.487 103.519 125.448Z" fill="#6D7381" stroke="#949BAB" stroke-width="2" stroke-miterlimit="10" stroke-linejoin="round"/>
<path d="M93.5192 121.029H91.0308C90.4785 121.029 90.0308 120.582 90.0308 120.029V117.541C90.0308 116.843 89.4882 116.223 88.713 116.223C88.0153 116.223 87.3951 116.766 87.3951 117.541V120.029C87.3951 120.582 86.9474 121.029 86.3951 121.029H83.9067C83.209 121.029 82.5889 121.572 82.5889 122.347C82.5889 123.122 83.1315 123.665 83.9067 123.665H86.3951C86.9474 123.665 87.3951 124.113 87.3951 124.665V127.153C87.3951 127.851 87.9378 128.471 88.713 128.471C89.4106 128.471 90.0308 127.929 90.0308 127.153V124.665C90.0308 124.113 90.4785 123.665 91.0308 123.665H93.5192C94.2169 123.665 94.837 123.122 94.837 122.347C94.837 121.572 94.2169 121.029 93.5192 121.029Z" fill="#C7CDDB"/>
<path d="M23.2781 108.752C26.15 108.752 28.4781 106.424 28.4781 103.552C28.4781 100.68 26.15 98.3519 23.2781 98.3519C20.4062 98.3519 18.0781 100.68 18.0781 103.552C18.0781 106.424 20.4062 108.752 23.2781 108.752Z" fill="#3B414E"/>
</svg>
