<svg width="177" height="177" viewBox="0 0 177 177" fill="none" xmlns="http://www.w3.org/2000/svg">
<path d="M88.0966 138.952C116.097 138.952 138.797 116.252 138.797 88.1521C138.797 60.0521 115.997 37.3521 88.0966 37.3521C60.0966 37.3521 37.3966 60.0521 37.3966 88.1521C37.3966 116.252 60.0966 138.952 88.0966 138.952Z" fill="#F1F3F9" stroke="#D6DCE8" stroke-width="2" stroke-miterlimit="10"/>
<path d="M135.497 54.8519C137.761 54.8519 139.597 53.0162 139.597 50.7519C139.597 48.4875 137.761 46.6519 135.497 46.6519C133.232 46.6519 131.397 48.4875 131.397 50.7519C131.397 53.0162 133.232 54.8519 135.497 54.8519Z" fill="#F1F3F9"/>
<path d="M141.497 38.852C143.043 38.852 144.297 37.5984 144.297 36.052C144.297 34.5056 143.043 33.252 141.497 33.252C139.95 33.252 138.697 34.5056 138.697 36.052C138.697 37.5984 139.95 38.852 141.497 38.852Z" fill="#F1F3F9"/>
<path d="M40.0967 54.7519C41.6431 54.7519 42.8967 53.4983 42.8967 51.9519C42.8967 50.4055 41.6431 49.1519 40.0967 49.1519C38.5503 49.1519 37.2967 50.4055 37.2967 51.9519C37.2967 53.4983 38.5503 54.7519 40.0967 54.7519Z" fill="#F1F3F9"/>
<path d="M122.329 127.794L54.6931 128.279C50.7891 128.296 47.6056 125.149 47.5534 121.271L47.0292 56.5596C47.0074 52.6548 50.1505 49.4744 54.0283 49.4265L121.664 48.9412C125.568 48.9238 128.752 52.071 128.804 55.9496L129.328 120.66C129.35 124.565 126.207 127.746 122.329 127.794Z" fill="white" stroke="#D6DCE8" stroke-width="2" stroke-miterlimit="10"/>
<path d="M118.521 118.132L59.0631 118.582C57.3813 118.597 56.0276 117.269 56.0107 115.587L55.5597 62.1065C55.5428 60.4243 56.8687 59.0718 58.5506 59.0569L118.008 58.6069C119.69 58.592 121.044 59.9196 121.061 61.6018L121.512 115.082C121.529 116.764 120.203 118.117 118.521 118.132Z" fill="#F1F3F9"/>
<path d="M89.7662 98.0604L68.0763 98.2111L78.8283 85.8355L89.7662 98.0604Z" fill="#AAB2C5"/>
<path d="M107.753 97.9138L76.4858 98.1362L91.9708 80.3645L107.753 97.9138Z" fill="#D6DCE8"/>
<path d="M78.8076 80.3926C80.5225 78.9177 80.7157 76.3303 79.2391 74.6134C77.7625 72.8966 75.1753 72.7005 73.4605 74.1754C71.7456 75.6503 71.5524 78.2377 73.029 79.9545C74.5055 81.6714 77.0927 81.8675 78.8076 80.3926Z" fill="#AAB2C5"/>
<path d="M103.238 125.448C102.928 126.766 102.463 128.161 101.92 129.324C100.447 132.192 98.1216 134.44 95.2533 135.913C92.3075 137.386 88.8191 138.006 85.3307 137.231C77.1136 135.526 71.8422 127.464 73.5477 119.247C75.2531 111.029 83.2377 105.681 91.4548 107.463C94.4006 108.084 96.9588 109.557 99.1293 111.572C102.773 115.216 104.323 120.487 103.238 125.448Z" fill="#D6DCE8" stroke="#AAB2C5" stroke-width="2" stroke-miterlimit="10"/>
<path d="M93.2378 120.029H90.7493V117.541C90.7493 116.33 89.7971 115.223 88.4315 115.223C87.2204 115.223 86.1137 116.175 86.1137 117.541V120.029H83.6253C82.4142 120.029 81.3074 120.982 81.3074 122.347C81.3074 122.974 81.531 123.566 81.9685 124.004C82.406 124.441 82.9981 124.665 83.6253 124.665H86.1137V127.153C86.1137 128.365 87.0659 129.471 88.4315 129.471C89.6426 129.471 90.7493 128.519 90.7493 127.153V124.665H93.2378C94.4488 124.665 95.5556 123.713 95.5556 122.347C95.5556 120.982 94.4488 120.029 93.2378 120.029Z" fill="white" stroke="#AAB2C5" stroke-width="2"/>
<path d="M22.9966 108.752C25.8685 108.752 28.1966 106.424 28.1966 103.552C28.1966 100.68 25.8685 98.3519 22.9966 98.3519C20.1247 98.3519 17.7966 100.68 17.7966 103.552C17.7966 106.424 20.1247 108.752 22.9966 108.752Z" fill="#F1F3F9"/>
</svg>
